<svg width="14" height="14" viewBox="0 0 14 14" fill="none" xmlns="http://www.w3.org/2000/svg">
<path d="M8.11184 2.99719L11.0034 5.88873C11.1252 6.01055 11.1252 6.2093 11.0034 6.33112L4.00213 13.3324L1.02724 13.6626C0.629731 13.7074 0.293132 13.3708 0.338012 12.9733L0.668199 9.99844L7.66945 2.99719C7.79127 2.87537 7.99002 2.87537 8.11184 2.99719ZM13.3051 2.26308L11.7407 0.698702C11.2534 0.211435 10.4616 0.211435 9.97114 0.698702L8.83633 1.83352C8.71451 1.95534 8.71451 2.15409 8.83633 2.27591L11.7279 5.16745C11.8497 5.28927 12.0484 5.28927 12.1703 5.16745L13.3051 4.03263C13.7923 3.54216 13.7923 2.75035 13.3051 2.26308Z" fill="#735CF7"/>
</svg>
