<svg width="33" height="32" viewBox="0 0 33 32" fill="none" xmlns="http://www.w3.org/2000/svg">
<path d="M4.33984 6.88C4.33984 6.07374 4.66013 5.3005 5.23024 4.73039C5.80035 4.16028 6.57359 3.84 7.37984 3.84H22.5798C23.6549 3.84 24.6858 4.26704 25.446 5.02719C26.2061 5.78734 26.6332 6.81832 26.6332 7.89333V8.43648C27.2493 8.79222 27.761 9.30389 28.1168 9.92005C28.4725 10.5362 28.6598 11.2352 28.6598 11.9467V24.1067C28.6598 25.1817 28.2328 26.2127 27.4726 26.9728C26.7125 27.7329 25.6815 28.16 24.6065 28.16H9.40651C8.06275 28.16 6.77402 27.6262 5.82384 26.676C4.87365 25.7258 4.33984 24.4371 4.33984 23.0933V6.88ZM6.36651 6.88C6.36651 7.14875 6.47327 7.40649 6.66331 7.59653C6.85335 7.78657 7.11109 7.89333 7.37984 7.89333H24.6065C24.6065 7.35582 24.393 6.84033 24.0129 6.46026C23.6328 6.08019 23.1173 5.86666 22.5798 5.86666H7.37984C7.11109 5.86666 6.85335 5.97342 6.66331 6.16346C6.47327 6.3535 6.36651 6.61124 6.36651 6.88ZM21.5665 16C21.2978 16 21.04 16.1068 20.85 16.2968C20.6599 16.4868 20.5532 16.7446 20.5532 17.0133C20.5532 17.2821 20.6599 17.5398 20.85 17.7299C21.04 17.9199 21.2978 18.0267 21.5665 18.0267H23.5932C23.8619 18.0267 24.1197 17.9199 24.3097 17.7299C24.4998 17.5398 24.6065 17.2821 24.6065 17.0133C24.6065 16.7446 24.4998 16.4868 24.3097 16.2968C24.1197 16.1068 23.8619 16 23.5932 16H21.5665Z" fill="#735CF7"/>
</svg>
