<svg width="24" height="24" viewBox="0 0 24 24" fill="none" xmlns="http://www.w3.org/2000/svg">
<path fill-rule="evenodd" clip-rule="evenodd" d="M12 22C17.5228 22 22 17.5228 22 12C22 6.47715 17.5228 2 12 2C6.47715 2 2 6.47715 2 12C2 17.5228 6.47715 22 12 22ZM14.4731 7.07635C14.4731 6.5016 14.1046 6 13.3676 6C12.3985 6 11.9139 6.7898 11.9139 7.36345C11.8947 8.04545 12.3017 8.45795 12.9996 8.45795C13.8329 8.45795 14.4731 7.7941 14.4731 7.07635ZM10.4988 15.0618C10.0918 16.6414 10.518 17 11.0999 17C11.6807 17 13.1839 16.461 14.56 15.0602L14.23 14.6125C13.6679 15.0607 13.0959 15.2763 12.9215 15.2763C12.7857 15.2763 12.7279 15.097 12.8632 14.5773L13.6283 11.6336C13.9187 10.5573 13.8219 9.85715 13.2405 9.85715C12.542 9.85715 10.9146 10.5617 9.5 11.764L9.7904 12.248C10.2375 11.9427 10.9921 11.6336 11.1665 11.6336C11.3018 11.6336 11.2825 11.8135 11.1665 12.2612L10.4988 15.0618Z" fill="#7886A0"/>
</svg>
