<svg width="24" height="24" viewBox="0 0 24 24" fill="none" xmlns="http://www.w3.org/2000/svg">
<path d="M19.4545 10.2781V8.41451C19.4545 4.29747 16.117 0.959961 12 0.959961C7.88297 0.959961 4.54545 4.29747 4.54545 8.41451V10.2781C4.4992 11.4271 3.97695 12.505 3.10393 13.2534C2.32791 13.9147 1.84186 14.8537 1.75 15.8691C1.75 18.1986 5.58164 19.5963 12 19.5963C18.4184 19.5963 22.25 18.1986 22.25 15.8691C22.1581 14.8537 21.6721 13.9147 20.8961 13.2534C20.0231 12.505 19.5008 11.4271 19.4545 10.2781Z" fill="#7886A0"/>
<path d="M8.5 21C8.97954 22.5297 10.3969 23.5707 12 23.5707C13.6031 23.5707 15.0205 22.5297 15.5 21C14.404 21.0809 13.2394 21.1226 12 21.1226C10.7606 21.1226 9.59597 21.0834 8.5 21Z" fill="#7886A0"/>
</svg>
