<svg width="16" height="16" viewBox="0 0 16 16" fill="none" xmlns="http://www.w3.org/2000/svg">
<path d="M8 3.22729C4.81818 3.22729 2.10091 5.20639 1 8.00002C2.10091 10.7937 4.81818 12.7727 8 12.7727C11.1818 12.7727 13.8991 10.7937 15 8.00002C13.8991 5.20639 11.1818 3.22729 8 3.22729ZM8 11.1818C6.24364 11.1818 4.81818 9.75639 4.81818 8.00002C4.81818 6.24366 6.24364 4.8182 8 4.8182C9.75636 4.8182 11.1818 6.24366 11.1818 8.00002C11.1818 9.75639 9.75636 11.1818 8 11.1818ZM8 6.09093C6.94364 6.09093 6.09091 6.94366 6.09091 8.00002C6.09091 9.05639 6.94364 9.90911 8 9.90911C9.05636 9.90911 9.90909 9.05639 9.90909 8.00002C9.90909 6.94366 9.05636 6.09093 8 6.09093Z" fill="#7886A0"/>
</svg>
