<svg width="16" height="16" viewBox="0 0 16 16" fill="none" xmlns="http://www.w3.org/2000/svg">
<path fill-rule="evenodd" clip-rule="evenodd" d="M10.5828 12.176L13.4779 15.0711L14.8921 13.6569L2.16422 0.928955L0.75 2.34317L3.28357 4.87674C2.3948 5.66045 1.69208 6.65092 1.25 7.77273C2.35091 10.5664 5.06818 12.5455 8.25 12.5455C9.06447 12.5455 9.84851 12.4158 10.5828 12.176ZM9.21289 10.8061L8.08134 9.67451C7.1599 9.5943 6.42843 8.86283 6.34821 7.94138L5.21667 6.80984C5.12022 7.11363 5.06818 7.43714 5.06818 7.77273C5.06818 9.52909 6.49364 10.9545 8.25 10.9545C8.58559 10.9545 8.9091 10.9025 9.21289 10.8061ZM15.25 7.77273C14.8702 8.73657 14.2979 9.60346 13.5806 10.3256L11.4092 8.15413C11.4241 8.02907 11.4318 7.90179 11.4318 7.77273C11.4318 6.01636 10.0064 4.59091 8.25 4.59091C8.12094 4.59091 7.99366 4.59861 7.8686 4.61357L6.46784 3.2128C7.03907 3.07373 7.63588 3 8.25 3C11.4318 3 14.1491 4.97909 15.25 7.77273Z" fill="#7886A0"/>
</svg>
