<svg width="26" height="26" viewBox="0 0 26 26" fill="none" xmlns="http://www.w3.org/2000/svg">
<path d="M25.0753 13.288C25.0753 12.4453 25.0007 11.6453 24.8727 10.8667H12.8193V15.6773H19.7207C19.4113 17.256 18.5047 18.5893 17.1607 19.496V22.696H21.278C23.6887 20.4667 25.0753 17.1813 25.0753 13.288Z" fill="#4285F4"/>
<path d="M12.8195 25.8C16.2755 25.8 19.1662 24.648 21.2782 22.696L17.1608 19.496C16.0088 20.264 14.5475 20.7334 12.8195 20.7334C9.48084 20.7334 6.65418 18.4827 5.64084 15.4427H1.39551V18.7387C3.49684 22.92 7.81684 25.8 12.8195 25.8Z" fill="#34A853"/>
<path d="M5.64086 15.4427C5.3742 14.6747 5.23553 13.8533 5.23553 13C5.23553 12.1467 5.38486 11.3253 5.64086 10.5573V7.26132H1.39553C0.520863 8.98932 0.0195312 10.9307 0.0195312 13C0.0195312 15.0693 0.520863 17.0107 1.39553 18.7387L5.64086 15.4427Z" fill="#FBBC05"/>
<path d="M12.8195 5.26668C14.7075 5.26668 16.3928 5.91735 17.7262 7.18668L21.3742 3.53868C19.1662 1.46935 16.2755 0.200012 12.8195 0.200012C7.81684 0.200012 3.49684 3.08002 1.39551 7.26135L5.64084 10.5573C6.65418 7.51735 9.48084 5.26668 12.8195 5.26668Z" fill="#EA4335"/>
</svg>
